<svg id="Layer_1" data-name="Layer 1" xmlns="http://www.w3.org/2000/svg" viewBox="0 0 1818 800"><defs><style>.cls-1{fill:#b7b7b7;}.cls-2{fill:#232323;}</style></defs><title>25</title><path class="cls-1" d="M114,545V789a11,11,0,0,1-11,11H11A11,11,0,0,1,0,789V0H60V545Z"/><path class="cls-2" d="M144,0V527.5a5.5,5.5,0,0,1-5.5,5.5h-61a5.5,5.5,0,0,1-5.5-5.5V0Z"/><path class="cls-1" d="M234,545V789a11,11,0,0,1-11,11H137a11,11,0,0,1-11-11V545h30V0h48V545Z"/><path class="cls-2" d="M288,0V527.5a5.5,5.5,0,0,1-5.5,5.5h-61a5.5,5.5,0,0,1-5.5-5.5V0Z"/><path class="cls-1" d="M354,0V789a11,11,0,0,1-11,11H257a11,11,0,0,1-11-11V545h54V0Z"/><path class="cls-1" d="M474,545V789a11,11,0,0,1-11,11H377a11,11,0,0,1-11-11V0h50.57V545Z"/><path class="cls-2" d="M497.14,0V527.5a5.5,5.5,0,0,1-5.5,5.5H434.07a5.5,5.5,0,0,1-5.5-5.5V0Z"/><path class="cls-1" d="M594,545V789a11,11,0,0,1-11,11H497a11,11,0,0,1-11-11V545h23.14V0h44.57V545Z"/><path class="cls-2" d="M634.29,0V527.5a5.5,5.5,0,0,1-5.5,5.5H571.21a5.5,5.5,0,0,1-5.5-5.5V0Z"/><path class="cls-1" d="M714,545V789a11,11,0,0,1-11,11H617a11,11,0,0,1-11-11V545h40.29V0h44.57V545Z"/><path class="cls-2" d="M771.43,0V527.5a5.5,5.5,0,0,1-5.5,5.5H708.36a5.5,5.5,0,0,1-5.5-5.5V0Z"/><path class="cls-1" d="M840,0V789a11,11,0,0,1-11,11H737a11,11,0,0,1-11-11V545h57.43V0Z"/><path class="cls-1" d="M966,545V789a11,11,0,0,1-11,11H863a11,11,0,0,1-11-11V0h60V545Z"/><path class="cls-2" d="M996,0V527.5a5.5,5.5,0,0,1-5.5,5.5h-61a5.5,5.5,0,0,1-5.5-5.5V0Z"/><path class="cls-1" d="M1086,545V789a11,11,0,0,1-11,11H989a11,11,0,0,1-11-11V545h30V0h48V545Z"/><path class="cls-2" d="M1140,0V527.5a5.5,5.5,0,0,1-5.5,5.5h-61a5.5,5.5,0,0,1-5.5-5.5V0Z"/><path class="cls-1" d="M1206,0V789a11,11,0,0,1-11,11h-86a11,11,0,0,1-11-11V545h54V0Z"/><path class="cls-1" d="M1326,545V789a11,11,0,0,1-11,11h-86a11,11,0,0,1-11-11V0h50.57V545Z"/><path class="cls-2" d="M1349.14,0V527.5a5.5,5.5,0,0,1-5.5,5.5h-57.57a5.5,5.5,0,0,1-5.5-5.5V0Z"/><path class="cls-1" d="M1446,545V789a11,11,0,0,1-11,11h-86a11,11,0,0,1-11-11V545h23.14V0h44.57V545Z"/><path class="cls-2" d="M1486.29,0V527.5a5.5,5.5,0,0,1-5.5,5.5h-57.58a5.5,5.5,0,0,1-5.5-5.5V0Z"/><path class="cls-1" d="M1566,545V789a11,11,0,0,1-11,11h-86a11,11,0,0,1-11-11V545h40.29V0h44.57V545Z"/><path class="cls-2" d="M1623.43,0V527.5a5.5,5.5,0,0,1-5.5,5.5h-57.57a5.5,5.5,0,0,1-5.5-5.5V0Z"/><path class="cls-1" d="M1692,0V789a11,11,0,0,1-11,11h-92a11,11,0,0,1-11-11V545h57.43V0Z"/><path class="cls-1" d="M1818,0V789a11,11,0,0,1-11,11h-92a11,11,0,0,1-11-11V0Z"/></svg>