<svg id="Layer_1" data-name="Layer 1" xmlns="http://www.w3.org/2000/svg" viewBox="0 0 2544 800"><defs><style>.cls-1{fill:#b7b7b7;}.cls-2{fill:#232323;}</style></defs><title>36-F</title><path class="cls-1" d="M108,545V789a11,11,0,0,1-11,11H11A11,11,0,0,1,0,789V0H50.57V545Z"/><path class="cls-2" d="M131.14,0V527.5a5.5,5.5,0,0,1-5.5,5.5H68.07a5.5,5.5,0,0,1-5.5-5.5V0Z"/><path class="cls-1" d="M228,545V789a11,11,0,0,1-11,11H131a11,11,0,0,1-11-11V545h23.14V0h44.57V545Z"/><path class="cls-2" d="M268.29,0V527.5a5.5,5.5,0,0,1-5.5,5.5H205.21a5.5,5.5,0,0,1-5.5-5.5V0Z"/><path class="cls-1" d="M348,545V789a11,11,0,0,1-11,11H251a11,11,0,0,1-11-11V545h40.29V0h44.57V545Z"/><path class="cls-2" d="M405.43,0V527.5a5.5,5.5,0,0,1-5.5,5.5H342.36a5.5,5.5,0,0,1-5.5-5.5V0Z"/><path class="cls-1" d="M474,0V789a11,11,0,0,1-11,11H371a11,11,0,0,1-11-11V545h57.43V0Z"/><path class="cls-1" d="M600,545V789a11,11,0,0,1-11,11H497a11,11,0,0,1-11-11V0h60V545Z"/><path class="cls-2" d="M630,0V527.5a5.5,5.5,0,0,1-5.5,5.5h-61a5.5,5.5,0,0,1-5.5-5.5V0Z"/><path class="cls-1" d="M720,545V789a11,11,0,0,1-11,11H623a11,11,0,0,1-11-11V545h30V0h48V545Z"/><path class="cls-2" d="M774,0V527.5a5.5,5.5,0,0,1-5.5,5.5h-61a5.5,5.5,0,0,1-5.5-5.5V0Z"/><path class="cls-1" d="M840,0V789a11,11,0,0,1-11,11H743a11,11,0,0,1-11-11V545h54V0Z"/><path class="cls-1" d="M960,545V789a11,11,0,0,1-11,11H863a11,11,0,0,1-11-11V0h50.57V545Z"/><path class="cls-2" d="M983.14,0V527.5a5.5,5.5,0,0,1-5.5,5.5H920.07a5.5,5.5,0,0,1-5.5-5.5V0Z"/><path class="cls-1" d="M1080,545V789a11,11,0,0,1-11,11H983a11,11,0,0,1-11-11V545h23.14V0h44.57V545Z"/><path class="cls-2" d="M1120.29,0V527.5a5.5,5.5,0,0,1-5.5,5.5h-57.58a5.5,5.5,0,0,1-5.5-5.5V0Z"/><path class="cls-1" d="M1200,545V789a11,11,0,0,1-11,11h-86a11,11,0,0,1-11-11V545h40.29V0h44.57V545Z"/><path class="cls-2" d="M1257.43,0V527.5a5.5,5.5,0,0,1-5.5,5.5h-57.57a5.5,5.5,0,0,1-5.5-5.5V0Z"/><path class="cls-1" d="M1326,0V789a11,11,0,0,1-11,11h-92a11,11,0,0,1-11-11V545h57.43V0Z"/><path class="cls-1" d="M1452,545V789a11,11,0,0,1-11,11h-92a11,11,0,0,1-11-11V0h60V545Z"/><path class="cls-2" d="M1482,0V527.5a5.5,5.5,0,0,1-5.5,5.5h-61a5.5,5.5,0,0,1-5.5-5.5V0Z"/><path class="cls-1" d="M1572,545V789a11,11,0,0,1-11,11h-86a11,11,0,0,1-11-11V545h30V0h48V545Z"/><path class="cls-2" d="M1626,0V527.5a5.5,5.5,0,0,1-5.5,5.5h-61a5.5,5.5,0,0,1-5.5-5.5V0Z"/><path class="cls-1" d="M1692,0V789a11,11,0,0,1-11,11h-86a11,11,0,0,1-11-11V545h54V0Z"/><path class="cls-1" d="M1812,545V789a11,11,0,0,1-11,11h-86a11,11,0,0,1-11-11V0h50.57V545Z"/><path class="cls-2" d="M1835.14,0V527.5a5.5,5.5,0,0,1-5.5,5.5h-57.57a5.5,5.5,0,0,1-5.5-5.5V0Z"/><path class="cls-1" d="M1932,545V789a11,11,0,0,1-11,11h-86a11,11,0,0,1-11-11V545h23.14V0h44.57V545Z"/><path class="cls-2" d="M1972.29,0V527.5a5.5,5.5,0,0,1-5.5,5.5h-57.58a5.5,5.5,0,0,1-5.5-5.5V0Z"/><path class="cls-1" d="M2052,545V789a11,11,0,0,1-11,11h-86a11,11,0,0,1-11-11V545h40.29V0h44.57V545Z"/><path class="cls-2" d="M2109.43,0V527.5a5.5,5.5,0,0,1-5.5,5.5h-57.57a5.5,5.5,0,0,1-5.5-5.5V0Z"/><path class="cls-1" d="M2178,0V789a11,11,0,0,1-11,11h-92a11,11,0,0,1-11-11V545h57.43V0Z"/><path class="cls-1" d="M2304,545V789a11,11,0,0,1-11,11h-92a11,11,0,0,1-11-11V0h60V545Z"/><path class="cls-2" d="M2334,0V527.5a5.5,5.5,0,0,1-5.5,5.5h-61a5.5,5.5,0,0,1-5.5-5.5V0Z"/><path class="cls-1" d="M2424,545V789a11,11,0,0,1-11,11h-86a11,11,0,0,1-11-11V545h30V0h48V545Z"/><path class="cls-2" d="M2478,0V527.5a5.5,5.5,0,0,1-5.5,5.5h-61a5.5,5.5,0,0,1-5.5-5.5V0Z"/><path class="cls-1" d="M2544,0V789a11,11,0,0,1-11,11h-86a11,11,0,0,1-11-11V545h54V0Z"/></svg>