<svg id="Layer_1" data-name="Layer 1" xmlns="http://www.w3.org/2000/svg" viewBox="0 0 4374 800"><defs><style>.cls-1{fill:#b7b7b7;}.cls-2{fill:#232323;}</style></defs><title>61</title><path class="cls-1" d="M114,545V789a11,11,0,0,1-11,11H11A11,11,0,0,1,0,789V0H60V545Z"/><path class="cls-2" d="M144,0V527.5a5.5,5.5,0,0,1-5.5,5.5h-61a5.5,5.5,0,0,1-5.5-5.5V0Z"/><path class="cls-1" d="M234,545V789a11,11,0,0,1-11,11H137a11,11,0,0,1-11-11V545h30V0h48V545Z"/><path class="cls-2" d="M288,0V527.5a5.5,5.5,0,0,1-5.5,5.5h-61a5.5,5.5,0,0,1-5.5-5.5V0Z"/><path class="cls-1" d="M354,0V789a11,11,0,0,1-11,11H257a11,11,0,0,1-11-11V545h54V0Z"/><path class="cls-1" d="M474,545V789a11,11,0,0,1-11,11H377a11,11,0,0,1-11-11V0h50.57V545Z"/><path class="cls-2" d="M497.14,0V527.5a5.5,5.5,0,0,1-5.5,5.5H434.07a5.5,5.5,0,0,1-5.5-5.5V0Z"/><path class="cls-1" d="M594,545V789a11,11,0,0,1-11,11H497a11,11,0,0,1-11-11V545h23.14V0h44.57V545Z"/><path class="cls-2" d="M634.29,0V527.5a5.5,5.5,0,0,1-5.5,5.5H571.21a5.5,5.5,0,0,1-5.5-5.5V0Z"/><path class="cls-1" d="M714,545V789a11,11,0,0,1-11,11H617a11,11,0,0,1-11-11V545h40.29V0h44.57V545Z"/><path class="cls-2" d="M771.43,0V527.5a5.5,5.5,0,0,1-5.5,5.5H708.36a5.5,5.5,0,0,1-5.5-5.5V0Z"/><path class="cls-1" d="M840,0V789a11,11,0,0,1-11,11H737a11,11,0,0,1-11-11V545h57.43V0Z"/><path class="cls-1" d="M966,545V789a11,11,0,0,1-11,11H863a11,11,0,0,1-11-11V0h60V545Z"/><path class="cls-2" d="M996,0V527.5a5.5,5.5,0,0,1-5.5,5.5h-61a5.5,5.5,0,0,1-5.5-5.5V0Z"/><path class="cls-1" d="M1086,545V789a11,11,0,0,1-11,11H989a11,11,0,0,1-11-11V545h30V0h48V545Z"/><path class="cls-2" d="M1140,0V527.5a5.5,5.5,0,0,1-5.5,5.5h-61a5.5,5.5,0,0,1-5.5-5.5V0Z"/><path class="cls-1" d="M1206,0V789a11,11,0,0,1-11,11h-86a11,11,0,0,1-11-11V545h54V0Z"/><path class="cls-1" d="M1326,545V789a11,11,0,0,1-11,11h-86a11,11,0,0,1-11-11V0h50.57V545Z"/><path class="cls-2" d="M1349.14,0V527.5a5.5,5.5,0,0,1-5.5,5.5h-57.57a5.5,5.5,0,0,1-5.5-5.5V0Z"/><path class="cls-1" d="M1446,545V789a11,11,0,0,1-11,11h-86a11,11,0,0,1-11-11V545h23.14V0h44.57V545Z"/><path class="cls-2" d="M1486.29,0V527.5a5.5,5.5,0,0,1-5.5,5.5h-57.58a5.5,5.5,0,0,1-5.5-5.5V0Z"/><path class="cls-1" d="M1566,545V789a11,11,0,0,1-11,11h-86a11,11,0,0,1-11-11V545h40.29V0h44.57V545Z"/><path class="cls-2" d="M1623.43,0V527.5a5.5,5.5,0,0,1-5.5,5.5h-57.57a5.5,5.5,0,0,1-5.5-5.5V0Z"/><path class="cls-1" d="M1692,0V789a11,11,0,0,1-11,11h-92a11,11,0,0,1-11-11V545h57.43V0Z"/><path class="cls-1" d="M1818,545V789a11,11,0,0,1-11,11h-92a11,11,0,0,1-11-11V0h60V545Z"/><path class="cls-2" d="M1848,0V527.5a5.5,5.5,0,0,1-5.5,5.5h-61a5.5,5.5,0,0,1-5.5-5.5V0Z"/><path class="cls-1" d="M1938,545V789a11,11,0,0,1-11,11h-86a11,11,0,0,1-11-11V545h30V0h48V545Z"/><path class="cls-2" d="M1992,0V527.5a5.5,5.5,0,0,1-5.5,5.5h-61a5.5,5.5,0,0,1-5.5-5.5V0Z"/><path class="cls-1" d="M2058,0V789a11,11,0,0,1-11,11h-86a11,11,0,0,1-11-11V545h54V0Z"/><path class="cls-1" d="M2178,545V789a11,11,0,0,1-11,11h-86a11,11,0,0,1-11-11V0h50.57V545Z"/><path class="cls-2" d="M2201.14,0V527.5a5.5,5.5,0,0,1-5.5,5.5h-57.57a5.5,5.5,0,0,1-5.5-5.5V0Z"/><path class="cls-1" d="M2298,545V789a11,11,0,0,1-11,11h-86a11,11,0,0,1-11-11V545h23.14V0h44.57V545Z"/><path class="cls-2" d="M2338.29,0V527.5a5.5,5.5,0,0,1-5.5,5.5h-57.58a5.5,5.5,0,0,1-5.5-5.5V0Z"/><path class="cls-1" d="M2418,545V789a11,11,0,0,1-11,11h-86a11,11,0,0,1-11-11V545h40.29V0h44.57V545Z"/><path class="cls-2" d="M2475.43,0V527.5a5.5,5.5,0,0,1-5.5,5.5h-57.57a5.5,5.5,0,0,1-5.5-5.5V0Z"/><path class="cls-1" d="M2544,0V789a11,11,0,0,1-11,11h-92a11,11,0,0,1-11-11V545h57.43V0Z"/><path class="cls-1" d="M2670,545V789a11,11,0,0,1-11,11h-92a11,11,0,0,1-11-11V0h60V545Z"/><path class="cls-2" d="M2700,0V527.5a5.5,5.5,0,0,1-5.5,5.5h-61a5.5,5.5,0,0,1-5.5-5.5V0Z"/><path class="cls-1" d="M2790,545V789a11,11,0,0,1-11,11h-86a11,11,0,0,1-11-11V545h30V0h48V545Z"/><path class="cls-2" d="M2844,0V527.5a5.5,5.5,0,0,1-5.5,5.5h-61a5.5,5.5,0,0,1-5.5-5.5V0Z"/><path class="cls-1" d="M2910,0V789a11,11,0,0,1-11,11h-86a11,11,0,0,1-11-11V545h54V0Z"/><path class="cls-1" d="M3030,545V789a11,11,0,0,1-11,11h-86a11,11,0,0,1-11-11V0h50.57V545Z"/><path class="cls-2" d="M3053.14,0V527.5a5.5,5.5,0,0,1-5.5,5.5h-57.57a5.5,5.5,0,0,1-5.5-5.5V0Z"/><path class="cls-1" d="M3150,545V789a11,11,0,0,1-11,11h-86a11,11,0,0,1-11-11V545h23.14V0h44.57V545Z"/><path class="cls-2" d="M3190.29,0V527.5a5.5,5.5,0,0,1-5.5,5.5h-57.58a5.5,5.5,0,0,1-5.5-5.5V0Z"/><path class="cls-1" d="M3270,545V789a11,11,0,0,1-11,11h-86a11,11,0,0,1-11-11V545h40.29V0h44.57V545Z"/><path class="cls-2" d="M3327.43,0V527.5a5.5,5.5,0,0,1-5.5,5.5h-57.57a5.5,5.5,0,0,1-5.5-5.5V0Z"/><path class="cls-1" d="M3396,0V789a11,11,0,0,1-11,11h-92a11,11,0,0,1-11-11V545h57.43V0Z"/><path class="cls-1" d="M3522,545V789a11,11,0,0,1-11,11h-92a11,11,0,0,1-11-11V0h60V545Z"/><path class="cls-2" d="M3552,0V527.5a5.5,5.5,0,0,1-5.5,5.5h-61a5.5,5.5,0,0,1-5.5-5.5V0Z"/><path class="cls-1" d="M3642,545V789a11,11,0,0,1-11,11h-86a11,11,0,0,1-11-11V545h30V0h48V545Z"/><path class="cls-2" d="M3696,0V527.5a5.5,5.5,0,0,1-5.5,5.5h-61a5.5,5.5,0,0,1-5.5-5.5V0Z"/><path class="cls-1" d="M3762,0V789a11,11,0,0,1-11,11h-86a11,11,0,0,1-11-11V545h54V0Z"/><path class="cls-1" d="M3882,545V789a11,11,0,0,1-11,11h-86a11,11,0,0,1-11-11V0h50.57V545Z"/><path class="cls-2" d="M3905.14,0V527.5a5.5,5.5,0,0,1-5.5,5.5h-57.57a5.5,5.5,0,0,1-5.5-5.5V0Z"/><path class="cls-1" d="M4002,545V789a11,11,0,0,1-11,11h-86a11,11,0,0,1-11-11V545h23.14V0h44.57V545Z"/><path class="cls-2" d="M4042.29,0V527.5a5.5,5.5,0,0,1-5.5,5.5h-57.58a5.5,5.5,0,0,1-5.5-5.5V0Z"/><path class="cls-1" d="M4122,545V789a11,11,0,0,1-11,11h-86a11,11,0,0,1-11-11V545h40.29V0h44.57V545Z"/><path class="cls-2" d="M4179.43,0V527.5a5.5,5.5,0,0,1-5.5,5.5h-57.57a5.5,5.5,0,0,1-5.5-5.5V0Z"/><path class="cls-1" d="M4248,0V789a11,11,0,0,1-11,11h-92a11,11,0,0,1-11-11V545h57.43V0Z"/><path class="cls-1" d="M4374,0V789a11,11,0,0,1-11,11h-92a11,11,0,0,1-11-11V0Z"/></svg>