<svg id="Layer_1" data-name="Layer 1" xmlns="http://www.w3.org/2000/svg" viewBox="0 0 5460 800"><defs><style>.cls-1{fill:#b7b7b7;}.cls-2{fill:#232323;}</style></defs><title>76</title><path class="cls-1" d="M108,0V789a11,11,0,0,1-11,11H11A11,11,0,0,1,0,789V0Z"/><path class="cls-1" d="M228,545V789a11,11,0,0,1-11,11H131a11,11,0,0,1-11-11V0h50.57V545Z"/><path class="cls-2" d="M251.14,0V527.5a5.5,5.5,0,0,1-5.5,5.5H188.07a5.5,5.5,0,0,1-5.5-5.5V0Z"/><path class="cls-1" d="M348,545V789a11,11,0,0,1-11,11H251a11,11,0,0,1-11-11V545h23.14V0h44.57V545Z"/><path class="cls-2" d="M388.29,0V527.5a5.5,5.5,0,0,1-5.5,5.5H325.21a5.5,5.5,0,0,1-5.5-5.5V0Z"/><path class="cls-1" d="M468,545V789a11,11,0,0,1-11,11H371a11,11,0,0,1-11-11V545h40.29V0h44.57V545Z"/><path class="cls-2" d="M525.43,0V527.5a5.5,5.5,0,0,1-5.5,5.5H462.36a5.5,5.5,0,0,1-5.5-5.5V0Z"/><path class="cls-1" d="M594,0V789a11,11,0,0,1-11,11H491a11,11,0,0,1-11-11V545h57.43V0Z"/><path class="cls-1" d="M720,545V789a11,11,0,0,1-11,11H617a11,11,0,0,1-11-11V0h60V545Z"/><path class="cls-2" d="M750,0V527.5a5.5,5.5,0,0,1-5.5,5.5h-61a5.5,5.5,0,0,1-5.5-5.5V0Z"/><path class="cls-1" d="M840,545V789a11,11,0,0,1-11,11H743a11,11,0,0,1-11-11V545h30V0h48V545Z"/><path class="cls-2" d="M894,0V527.5a5.5,5.5,0,0,1-5.5,5.5h-61a5.5,5.5,0,0,1-5.5-5.5V0Z"/><path class="cls-1" d="M960,0V789a11,11,0,0,1-11,11H863a11,11,0,0,1-11-11V545h54V0Z"/><path class="cls-1" d="M1080,545V789a11,11,0,0,1-11,11H983a11,11,0,0,1-11-11V0h50.57V545Z"/><path class="cls-2" d="M1103.14,0V527.5a5.5,5.5,0,0,1-5.5,5.5h-57.57a5.5,5.5,0,0,1-5.5-5.5V0Z"/><path class="cls-1" d="M1200,545V789a11,11,0,0,1-11,11h-86a11,11,0,0,1-11-11V545h23.14V0h44.57V545Z"/><path class="cls-2" d="M1240.29,0V527.5a5.5,5.5,0,0,1-5.5,5.5h-57.58a5.5,5.5,0,0,1-5.5-5.5V0Z"/><path class="cls-1" d="M1320,545V789a11,11,0,0,1-11,11h-86a11,11,0,0,1-11-11V545h40.29V0h44.57V545Z"/><path class="cls-2" d="M1377.43,0V527.5a5.5,5.5,0,0,1-5.5,5.5h-57.57a5.5,5.5,0,0,1-5.5-5.5V0Z"/><path class="cls-1" d="M1446,0V789a11,11,0,0,1-11,11h-92a11,11,0,0,1-11-11V545h57.43V0Z"/><path class="cls-1" d="M1572,545V789a11,11,0,0,1-11,11h-92a11,11,0,0,1-11-11V0h60V545Z"/><path class="cls-2" d="M1602,0V527.5a5.5,5.5,0,0,1-5.5,5.5h-61a5.5,5.5,0,0,1-5.5-5.5V0Z"/><path class="cls-1" d="M1692,545V789a11,11,0,0,1-11,11h-86a11,11,0,0,1-11-11V545h30V0h48V545Z"/><path class="cls-2" d="M1746,0V527.5a5.5,5.5,0,0,1-5.5,5.5h-61a5.5,5.5,0,0,1-5.5-5.5V0Z"/><path class="cls-1" d="M1812,0V789a11,11,0,0,1-11,11h-86a11,11,0,0,1-11-11V545h54V0Z"/><path class="cls-1" d="M1932,545V789a11,11,0,0,1-11,11h-86a11,11,0,0,1-11-11V0h50.57V545Z"/><path class="cls-2" d="M1955.14,0V527.5a5.5,5.5,0,0,1-5.5,5.5h-57.57a5.5,5.5,0,0,1-5.5-5.5V0Z"/><path class="cls-1" d="M2052,545V789a11,11,0,0,1-11,11h-86a11,11,0,0,1-11-11V545h23.14V0h44.57V545Z"/><path class="cls-2" d="M2092.29,0V527.5a5.5,5.5,0,0,1-5.5,5.5h-57.58a5.5,5.5,0,0,1-5.5-5.5V0Z"/><path class="cls-1" d="M2172,545V789a11,11,0,0,1-11,11h-86a11,11,0,0,1-11-11V545h40.29V0h44.57V545Z"/><path class="cls-2" d="M2229.43,0V527.5a5.5,5.5,0,0,1-5.5,5.5h-57.57a5.5,5.5,0,0,1-5.5-5.5V0Z"/><path class="cls-1" d="M2298,0V789a11,11,0,0,1-11,11h-92a11,11,0,0,1-11-11V545h57.43V0Z"/><path class="cls-1" d="M2424,545V789a11,11,0,0,1-11,11h-92a11,11,0,0,1-11-11V0h60V545Z"/><path class="cls-2" d="M2454,0V527.5a5.5,5.5,0,0,1-5.5,5.5h-61a5.5,5.5,0,0,1-5.5-5.5V0Z"/><path class="cls-1" d="M2544,545V789a11,11,0,0,1-11,11h-86a11,11,0,0,1-11-11V545h30V0h48V545Z"/><path class="cls-2" d="M2598,0V527.5a5.5,5.5,0,0,1-5.5,5.5h-61a5.5,5.5,0,0,1-5.5-5.5V0Z"/><path class="cls-1" d="M2664,0V789a11,11,0,0,1-11,11h-86a11,11,0,0,1-11-11V545h54V0Z"/><path class="cls-1" d="M2784,545V789a11,11,0,0,1-11,11h-86a11,11,0,0,1-11-11V0h50.57V545Z"/><path class="cls-2" d="M2807.14,0V527.5a5.5,5.5,0,0,1-5.5,5.5h-57.57a5.5,5.5,0,0,1-5.5-5.5V0Z"/><path class="cls-1" d="M2904,545V789a11,11,0,0,1-11,11h-86a11,11,0,0,1-11-11V545h23.14V0h44.57V545Z"/><path class="cls-2" d="M2944.29,0V527.5a5.5,5.5,0,0,1-5.5,5.5h-57.58a5.5,5.5,0,0,1-5.5-5.5V0Z"/><path class="cls-1" d="M3024,545V789a11,11,0,0,1-11,11h-86a11,11,0,0,1-11-11V545h40.29V0h44.57V545Z"/><path class="cls-2" d="M3081.43,0V527.5a5.5,5.5,0,0,1-5.5,5.5h-57.57a5.5,5.5,0,0,1-5.5-5.5V0Z"/><path class="cls-1" d="M3150,0V789a11,11,0,0,1-11,11h-92a11,11,0,0,1-11-11V545h57.43V0Z"/><path class="cls-1" d="M3276,545V789a11,11,0,0,1-11,11h-92a11,11,0,0,1-11-11V0h60V545Z"/><path class="cls-2" d="M3306,0V527.5a5.5,5.5,0,0,1-5.5,5.5h-61a5.5,5.5,0,0,1-5.5-5.5V0Z"/><path class="cls-1" d="M3396,545V789a11,11,0,0,1-11,11h-86a11,11,0,0,1-11-11V545h30V0h48V545Z"/><path class="cls-2" d="M3450,0V527.5a5.5,5.5,0,0,1-5.5,5.5h-61a5.5,5.5,0,0,1-5.5-5.5V0Z"/><path class="cls-1" d="M3516,0V789a11,11,0,0,1-11,11h-86a11,11,0,0,1-11-11V545h54V0Z"/><path class="cls-1" d="M3636,545V789a11,11,0,0,1-11,11h-86a11,11,0,0,1-11-11V0h50.57V545Z"/><path class="cls-2" d="M3659.14,0V527.5a5.5,5.5,0,0,1-5.5,5.5h-57.57a5.5,5.5,0,0,1-5.5-5.5V0Z"/><path class="cls-1" d="M3756,545V789a11,11,0,0,1-11,11h-86a11,11,0,0,1-11-11V545h23.14V0h44.57V545Z"/><path class="cls-2" d="M3796.29,0V527.5a5.5,5.5,0,0,1-5.5,5.5h-57.58a5.5,5.5,0,0,1-5.5-5.5V0Z"/><path class="cls-1" d="M3876,545V789a11,11,0,0,1-11,11h-86a11,11,0,0,1-11-11V545h40.29V0h44.57V545Z"/><path class="cls-2" d="M3933.43,0V527.5a5.5,5.5,0,0,1-5.5,5.5h-57.57a5.5,5.5,0,0,1-5.5-5.5V0Z"/><path class="cls-1" d="M4002,0V789a11,11,0,0,1-11,11h-92a11,11,0,0,1-11-11V545h57.43V0Z"/><path class="cls-1" d="M4128,545V789a11,11,0,0,1-11,11h-92a11,11,0,0,1-11-11V0h60V545Z"/><path class="cls-2" d="M4158,0V527.5a5.5,5.5,0,0,1-5.5,5.5h-61a5.5,5.5,0,0,1-5.5-5.5V0Z"/><path class="cls-1" d="M4248,545V789a11,11,0,0,1-11,11h-86a11,11,0,0,1-11-11V545h30V0h48V545Z"/><path class="cls-2" d="M4302,0V527.5a5.5,5.5,0,0,1-5.5,5.5h-61a5.5,5.5,0,0,1-5.5-5.5V0Z"/><path class="cls-1" d="M4368,0V789a11,11,0,0,1-11,11h-86a11,11,0,0,1-11-11V545h54V0Z"/><path class="cls-1" d="M4488,545V789a11,11,0,0,1-11,11h-86a11,11,0,0,1-11-11V0h50.57V545Z"/><path class="cls-2" d="M4511.14,0V527.5a5.5,5.5,0,0,1-5.5,5.5h-57.57a5.5,5.5,0,0,1-5.5-5.5V0Z"/><path class="cls-1" d="M4608,545V789a11,11,0,0,1-11,11h-86a11,11,0,0,1-11-11V545h23.14V0h44.57V545Z"/><path class="cls-2" d="M4648.29,0V527.5a5.5,5.5,0,0,1-5.5,5.5h-57.58a5.5,5.5,0,0,1-5.5-5.5V0Z"/><path class="cls-1" d="M4728,545V789a11,11,0,0,1-11,11h-86a11,11,0,0,1-11-11V545h40.29V0h44.57V545Z"/><path class="cls-2" d="M4785.43,0V527.5a5.5,5.5,0,0,1-5.5,5.5h-57.57a5.5,5.5,0,0,1-5.5-5.5V0Z"/><path class="cls-1" d="M4854,0V789a11,11,0,0,1-11,11h-92a11,11,0,0,1-11-11V545h57.43V0Z"/><path class="cls-1" d="M4980,545V789a11,11,0,0,1-11,11h-92a11,11,0,0,1-11-11V0h60V545Z"/><path class="cls-2" d="M5010,0V527.5a5.5,5.5,0,0,1-5.5,5.5h-61a5.5,5.5,0,0,1-5.5-5.5V0Z"/><path class="cls-1" d="M5100,545V789a11,11,0,0,1-11,11h-86a11,11,0,0,1-11-11V545h30V0h48V545Z"/><path class="cls-2" d="M5154,0V527.5a5.5,5.5,0,0,1-5.5,5.5h-61a5.5,5.5,0,0,1-5.5-5.5V0Z"/><path class="cls-1" d="M5220,0V789a11,11,0,0,1-11,11h-86a11,11,0,0,1-11-11V545h54V0Z"/><path class="cls-1" d="M5340,545V789a11,11,0,0,1-11,11h-86a11,11,0,0,1-11-11V0h50.57V545Z"/><path class="cls-2" d="M5363.14,0V527.5a5.5,5.5,0,0,1-5.5,5.5h-57.57a5.5,5.5,0,0,1-5.5-5.5V0Z"/><path class="cls-1" d="M5460,0V789a11,11,0,0,1-11,11h-86a11,11,0,0,1-11-11V545h23.14V0Z"/></svg>