<svg id="Layer_1" data-name="Layer 1" xmlns="http://www.w3.org/2000/svg" viewBox="0 0 6324 800"><defs><style>.cls-1{fill:#b7b7b7;}.cls-2{fill:#232323;}</style></defs><title>88</title><path class="cls-1" d="M108,545V789a11,11,0,0,1-11,11H11A11,11,0,0,1,0,789V0H84.86V545Z"/><path class="cls-2" d="M165.43,0V527.5a5.5,5.5,0,0,1-5.5,5.5H102.36a5.5,5.5,0,0,1-5.5-5.5V0Z"/><path class="cls-1" d="M234,0V789a11,11,0,0,1-11,11H131a11,11,0,0,1-11-11V545h57.43V0Z"/><path class="cls-1" d="M360,545V789a11,11,0,0,1-11,11H257a11,11,0,0,1-11-11V0h60V545Z"/><path class="cls-2" d="M390,0V527.5a5.5,5.5,0,0,1-5.5,5.5h-61a5.5,5.5,0,0,1-5.5-5.5V0Z"/><path class="cls-1" d="M480,545V789a11,11,0,0,1-11,11H383a11,11,0,0,1-11-11V545h30V0h48V545Z"/><path class="cls-2" d="M534,0V527.5a5.5,5.5,0,0,1-5.5,5.5h-61a5.5,5.5,0,0,1-5.5-5.5V0Z"/><path class="cls-1" d="M600,0V789a11,11,0,0,1-11,11H503a11,11,0,0,1-11-11V545h54V0Z"/><path class="cls-1" d="M720,545V789a11,11,0,0,1-11,11H623a11,11,0,0,1-11-11V0h50.57V545Z"/><path class="cls-2" d="M743.14,0V527.5a5.5,5.5,0,0,1-5.5,5.5H680.07a5.5,5.5,0,0,1-5.5-5.5V0Z"/><path class="cls-1" d="M840,545V789a11,11,0,0,1-11,11H743a11,11,0,0,1-11-11V545h23.14V0h44.57V545Z"/><path class="cls-2" d="M880.29,0V527.5a5.5,5.5,0,0,1-5.5,5.5H817.21a5.5,5.5,0,0,1-5.5-5.5V0Z"/><path class="cls-1" d="M960,545V789a11,11,0,0,1-11,11H863a11,11,0,0,1-11-11V545h40.29V0h44.57V545Z"/><path class="cls-2" d="M1017.43,0V527.5a5.5,5.5,0,0,1-5.5,5.5H954.36a5.5,5.5,0,0,1-5.5-5.5V0Z"/><path class="cls-1" d="M1086,0V789a11,11,0,0,1-11,11H983a11,11,0,0,1-11-11V545h57.43V0Z"/><path class="cls-1" d="M1212,545V789a11,11,0,0,1-11,11h-92a11,11,0,0,1-11-11V0h60V545Z"/><path class="cls-2" d="M1242,0V527.5a5.5,5.5,0,0,1-5.5,5.5h-61a5.5,5.5,0,0,1-5.5-5.5V0Z"/><path class="cls-1" d="M1332,545V789a11,11,0,0,1-11,11h-86a11,11,0,0,1-11-11V545h30V0h48V545Z"/><path class="cls-2" d="M1386,0V527.5a5.5,5.5,0,0,1-5.5,5.5h-61a5.5,5.5,0,0,1-5.5-5.5V0Z"/><path class="cls-1" d="M1452,0V789a11,11,0,0,1-11,11h-86a11,11,0,0,1-11-11V545h54V0Z"/><path class="cls-1" d="M1572,545V789a11,11,0,0,1-11,11h-86a11,11,0,0,1-11-11V0h50.57V545Z"/><path class="cls-2" d="M1595.14,0V527.5a5.5,5.5,0,0,1-5.5,5.5h-57.57a5.5,5.5,0,0,1-5.5-5.5V0Z"/><path class="cls-1" d="M1692,545V789a11,11,0,0,1-11,11h-86a11,11,0,0,1-11-11V545h23.14V0h44.57V545Z"/><path class="cls-2" d="M1732.29,0V527.5a5.5,5.5,0,0,1-5.5,5.5h-57.58a5.5,5.5,0,0,1-5.5-5.5V0Z"/><path class="cls-1" d="M1812,545V789a11,11,0,0,1-11,11h-86a11,11,0,0,1-11-11V545h40.29V0h44.57V545Z"/><path class="cls-2" d="M1869.43,0V527.5a5.5,5.5,0,0,1-5.5,5.5h-57.57a5.5,5.5,0,0,1-5.5-5.5V0Z"/><path class="cls-1" d="M1938,0V789a11,11,0,0,1-11,11h-92a11,11,0,0,1-11-11V545h57.43V0Z"/><path class="cls-1" d="M2064,545V789a11,11,0,0,1-11,11h-92a11,11,0,0,1-11-11V0h60V545Z"/><path class="cls-2" d="M2094,0V527.5a5.5,5.5,0,0,1-5.5,5.5h-61a5.5,5.5,0,0,1-5.5-5.5V0Z"/><path class="cls-1" d="M2184,545V789a11,11,0,0,1-11,11h-86a11,11,0,0,1-11-11V545h30V0h48V545Z"/><path class="cls-2" d="M2238,0V527.5a5.5,5.5,0,0,1-5.5,5.5h-61a5.5,5.5,0,0,1-5.5-5.5V0Z"/><path class="cls-1" d="M2304,0V789a11,11,0,0,1-11,11h-86a11,11,0,0,1-11-11V545h54V0Z"/><path class="cls-1" d="M2424,545V789a11,11,0,0,1-11,11h-86a11,11,0,0,1-11-11V0h50.57V545Z"/><path class="cls-2" d="M2447.14,0V527.5a5.5,5.5,0,0,1-5.5,5.5h-57.57a5.5,5.5,0,0,1-5.5-5.5V0Z"/><path class="cls-1" d="M2544,545V789a11,11,0,0,1-11,11h-86a11,11,0,0,1-11-11V545h23.14V0h44.57V545Z"/><path class="cls-2" d="M2584.29,0V527.5a5.5,5.5,0,0,1-5.5,5.5h-57.58a5.5,5.5,0,0,1-5.5-5.5V0Z"/><path class="cls-1" d="M2664,545V789a11,11,0,0,1-11,11h-86a11,11,0,0,1-11-11V545h40.29V0h44.57V545Z"/><path class="cls-2" d="M2721.43,0V527.5a5.5,5.5,0,0,1-5.5,5.5h-57.57a5.5,5.5,0,0,1-5.5-5.5V0Z"/><path class="cls-1" d="M2790,0V789a11,11,0,0,1-11,11h-92a11,11,0,0,1-11-11V545h57.43V0Z"/><path class="cls-1" d="M2916,545V789a11,11,0,0,1-11,11h-92a11,11,0,0,1-11-11V0h60V545Z"/><path class="cls-2" d="M2946,0V527.5a5.5,5.5,0,0,1-5.5,5.5h-61a5.5,5.5,0,0,1-5.5-5.5V0Z"/><path class="cls-1" d="M3036,545V789a11,11,0,0,1-11,11h-86a11,11,0,0,1-11-11V545h30V0h48V545Z"/><path class="cls-2" d="M3090,0V527.5a5.5,5.5,0,0,1-5.5,5.5h-61a5.5,5.5,0,0,1-5.5-5.5V0Z"/><path class="cls-1" d="M3156,0V789a11,11,0,0,1-11,11h-86a11,11,0,0,1-11-11V545h54V0Z"/><path class="cls-1" d="M3276,545V789a11,11,0,0,1-11,11h-86a11,11,0,0,1-11-11V0h50.57V545Z"/><path class="cls-2" d="M3299.14,0V527.5a5.5,5.5,0,0,1-5.5,5.5h-57.57a5.5,5.5,0,0,1-5.5-5.5V0Z"/><path class="cls-1" d="M3396,545V789a11,11,0,0,1-11,11h-86a11,11,0,0,1-11-11V545h23.14V0h44.57V545Z"/><path class="cls-2" d="M3436.29,0V527.5a5.5,5.5,0,0,1-5.5,5.5h-57.58a5.5,5.5,0,0,1-5.5-5.5V0Z"/><path class="cls-1" d="M3516,545V789a11,11,0,0,1-11,11h-86a11,11,0,0,1-11-11V545h40.29V0h44.57V545Z"/><path class="cls-2" d="M3573.43,0V527.5a5.5,5.5,0,0,1-5.5,5.5h-57.57a5.5,5.5,0,0,1-5.5-5.5V0Z"/><path class="cls-1" d="M3642,0V789a11,11,0,0,1-11,11h-92a11,11,0,0,1-11-11V545h57.43V0Z"/><path class="cls-1" d="M3768,545V789a11,11,0,0,1-11,11h-92a11,11,0,0,1-11-11V0h60V545Z"/><path class="cls-2" d="M3798,0V527.5a5.5,5.5,0,0,1-5.5,5.5h-61a5.5,5.5,0,0,1-5.5-5.5V0Z"/><path class="cls-1" d="M3888,545V789a11,11,0,0,1-11,11h-86a11,11,0,0,1-11-11V545h30V0h48V545Z"/><path class="cls-2" d="M3942,0V527.5a5.5,5.5,0,0,1-5.5,5.5h-61a5.5,5.5,0,0,1-5.5-5.5V0Z"/><path class="cls-1" d="M4008,0V789a11,11,0,0,1-11,11h-86a11,11,0,0,1-11-11V545h54V0Z"/><path class="cls-1" d="M4128,545V789a11,11,0,0,1-11,11h-86a11,11,0,0,1-11-11V0h50.57V545Z"/><path class="cls-2" d="M4151.14,0V527.5a5.5,5.5,0,0,1-5.5,5.5h-57.57a5.5,5.5,0,0,1-5.5-5.5V0Z"/><path class="cls-1" d="M4248,545V789a11,11,0,0,1-11,11h-86a11,11,0,0,1-11-11V545h23.14V0h44.57V545Z"/><path class="cls-2" d="M4288.29,0V527.5a5.5,5.5,0,0,1-5.5,5.5h-57.58a5.5,5.5,0,0,1-5.5-5.5V0Z"/><path class="cls-1" d="M4368,545V789a11,11,0,0,1-11,11h-86a11,11,0,0,1-11-11V545h40.29V0h44.57V545Z"/><path class="cls-2" d="M4425.43,0V527.5a5.5,5.5,0,0,1-5.5,5.5h-57.57a5.5,5.5,0,0,1-5.5-5.5V0Z"/><path class="cls-1" d="M4494,0V789a11,11,0,0,1-11,11h-92a11,11,0,0,1-11-11V545h57.43V0Z"/><path class="cls-1" d="M4620,545V789a11,11,0,0,1-11,11h-92a11,11,0,0,1-11-11V0h60V545Z"/><path class="cls-2" d="M4650,0V527.5a5.5,5.5,0,0,1-5.5,5.5h-61a5.5,5.5,0,0,1-5.5-5.5V0Z"/><path class="cls-1" d="M4740,545V789a11,11,0,0,1-11,11h-86a11,11,0,0,1-11-11V545h30V0h48V545Z"/><path class="cls-2" d="M4794,0V527.5a5.5,5.5,0,0,1-5.5,5.5h-61a5.5,5.5,0,0,1-5.5-5.5V0Z"/><path class="cls-1" d="M4860,0V789a11,11,0,0,1-11,11h-86a11,11,0,0,1-11-11V545h54V0Z"/><path class="cls-1" d="M4980,545V789a11,11,0,0,1-11,11h-86a11,11,0,0,1-11-11V0h50.57V545Z"/><path class="cls-2" d="M5003.14,0V527.5a5.5,5.5,0,0,1-5.5,5.5h-57.57a5.5,5.5,0,0,1-5.5-5.5V0Z"/><path class="cls-1" d="M5100,545V789a11,11,0,0,1-11,11h-86a11,11,0,0,1-11-11V545h23.14V0h44.57V545Z"/><path class="cls-2" d="M5140.29,0V527.5a5.5,5.5,0,0,1-5.5,5.5h-57.58a5.5,5.5,0,0,1-5.5-5.5V0Z"/><path class="cls-1" d="M5220,545V789a11,11,0,0,1-11,11h-86a11,11,0,0,1-11-11V545h40.29V0h44.57V545Z"/><path class="cls-2" d="M5277.43,0V527.5a5.5,5.5,0,0,1-5.5,5.5h-57.57a5.5,5.5,0,0,1-5.5-5.5V0Z"/><path class="cls-1" d="M5346,0V789a11,11,0,0,1-11,11h-92a11,11,0,0,1-11-11V545h57.43V0Z"/><path class="cls-1" d="M5472,545V789a11,11,0,0,1-11,11h-92a11,11,0,0,1-11-11V0h60V545Z"/><path class="cls-2" d="M5502,0V527.5a5.5,5.5,0,0,1-5.5,5.5h-61a5.5,5.5,0,0,1-5.5-5.5V0Z"/><path class="cls-1" d="M5592,545V789a11,11,0,0,1-11,11h-86a11,11,0,0,1-11-11V545h30V0h48V545Z"/><path class="cls-2" d="M5646,0V527.5a5.5,5.5,0,0,1-5.5,5.5h-61a5.5,5.5,0,0,1-5.5-5.5V0Z"/><path class="cls-1" d="M5712,0V789a11,11,0,0,1-11,11h-86a11,11,0,0,1-11-11V545h54V0Z"/><path class="cls-1" d="M5832,545V789a11,11,0,0,1-11,11h-86a11,11,0,0,1-11-11V0h50.57V545Z"/><path class="cls-2" d="M5855.14,0V527.5a5.5,5.5,0,0,1-5.5,5.5h-57.57a5.5,5.5,0,0,1-5.5-5.5V0Z"/><path class="cls-1" d="M5952,545V789a11,11,0,0,1-11,11h-86a11,11,0,0,1-11-11V545h23.14V0h44.57V545Z"/><path class="cls-2" d="M5992.29,0V527.5a5.5,5.5,0,0,1-5.5,5.5h-57.58a5.5,5.5,0,0,1-5.5-5.5V0Z"/><path class="cls-1" d="M6072,545V789a11,11,0,0,1-11,11h-86a11,11,0,0,1-11-11V545h40.29V0h44.57V545Z"/><path class="cls-2" d="M6129.43,0V527.5a5.5,5.5,0,0,1-5.5,5.5h-57.57a5.5,5.5,0,0,1-5.5-5.5V0Z"/><path class="cls-1" d="M6198,0V789a11,11,0,0,1-11,11h-92a11,11,0,0,1-11-11V545h57.43V0Z"/><path class="cls-1" d="M6324,0V789a11,11,0,0,1-11,11h-92a11,11,0,0,1-11-11V0Z"/></svg>